<svg xmlns="http://www.w3.org/2000/svg" width="512" height="512" style="overflow: visible;" viewBox="0 0 512 512" data-svgdocument="" id="_eg926bg6b_1" class="fl-svgdocument" x="0" y="0"><path id="_eg926bg6b_41" d="M29.991,30.6l1.8-1.8a7.5,7.5,0,0,0-14.57.108l.017.071-.038.009A7.48,7.48,0,0,0,22.7,37.888L24.588,36,24,36l.01-2.554L21.7,35.713l-1.4-1.426,2.211-2.175H19.02v-2h3.585l-2.293-2.293,1.415-1.414L24.02,28.7V25.112h2V28.66l2.3-2.261,1.4,1.426-2.269,2.232L29.978,30Z" transform="matrix(2.449070453643799, 0, 0, 2.449070453643799, 41.102943420410156, 168.88832092285156)" fill="#da4343" data-uid="o_ej82lcl05_5"></path><path id="_eg926bg6b_42" transform="matrix(2.449070453643799, 0, 0, 2.449070453643799, 41.102943420410156, 168.88832092285156)" fill="#da4343" data-type="polygon" d="M27.989 32.597L28.553 32.033L27.433 32.059L27.989 32.597Z" data-uid="o_ej82lcl05_6"></path><path id="_eg926bg6b_43" d="M35.474,25.112h-3.2A9.486,9.486,0,0,1,33.385,27.2Z" transform="matrix(2.449070453643799, 0, 0, 2.449070453643799, 41.102943420410156, 168.88832092285156)" fill="#da4343" data-uid="o_ej82lcl05_7"></path><path id="_eg926bg6b_44" d="M12.8,37.473l-.191,1.334a3.3,3.3,0,0,0,2.861,3.744l2.28.285,3.358-3.358a9.455,9.455,0,0,1-6.088-8.866,9.581,9.581,0,0,1,.069-1.1l-.643.161a3.3,3.3,0,0,0-2.153,4.682A5.288,5.288,0,0,1,12.8,37.473Z" transform="matrix(2.449070453643799, 0, 0, 2.449070453643799, 41.102943420410156, 168.88832092285156)" fill="#5bc03c" data-uid="o_ej82lcl05_8"></path><path id="_eg926bg6b_45" transform="matrix(2.449070453643799, 0, 0, 2.449070453643799, 41.102943420410156, 168.88832092285156)" fill="#da4343" data-type="polygon" d="M26.006 34.58L26.575 34.011L26.01 33.464L26.006 34.58Z" data-uid="o_ej82lcl05_9"></path><path id="_eg926bg6b_46" d="M42.537,18.049a7.489,7.489,0,0,0-12.48,4.83,9.483,9.483,0,0,1,1.963,1.9V23.112H35.6l-2.293-2.293,1.415-1.414L37.02,21.7V18.112h2v3.454Z" transform="matrix(2.449070453643799, 0, 0, 2.449070453643799, 41.102943420410156, 168.88832092285156)" fill="#da4343" data-uid="o_ej82lcl05_10"></path><path id="_eg926bg6b_47" d="M15.222,44.535a5.291,5.291,0,0,1-1.777-.566L5.414,52H8.586l7.373-7.373Z" transform="matrix(2.449070453643799, 0, 0, 2.449070453643799, 41.102943420410156, 168.88832092285156)" fill="#695e50" data-uid="o_ej82lcl05_11"></path><path id="_eg926bg6b_48" transform="matrix(2.449070453643799, 0, 0, 2.449070453643799, 41.102943420410156, 168.88832092285156)" fill="#695e50" data-type="polygon" d="M51.586 9L48.414 9L47.688 9.726L49.803 10.783L51.586 9Z" data-uid="o_ej82lcl05_12"></path><path id="_eg926bg6b_49" d="M28.905,12.953,29.7,11.37A4.347,4.347,0,0,1,35.29,9.322l2.533,1.086a2.353,2.353,0,0,0,2.127-.144L40.392,10a4.32,4.32,0,0,1,2.178-.6L30.447,3.342,24.864,14.509l2.238-.28A2.333,2.333,0,0,0,28.905,12.953Z" transform="matrix(2.449070453643799, 0, 0, 2.449070453643799, 41.102943420410156, 168.88832092285156)" fill="#eca62e" data-uid="o_ej82lcl05_13"></path><path id="_eg926bg6b_50" d="M16.328,25.824A9.482,9.482,0,0,1,28.19,21.85a9.487,9.487,0,0,1,15.764-5.218L45.783,14.8l-1.064-2.129a2.342,2.342,0,0,0-3.3-.96l-.442.265a4.353,4.353,0,0,1-3.943.267L34.5,11.16a2.348,2.348,0,0,0-3.017,1.105l-.791,1.583a4.337,4.337,0,0,1-3.344,2.366l-3.954.494a2.356,2.356,0,0,0-1.982,1.756,4.315,4.315,0,0,1-2.838,3.064l-1.091.365a2.343,2.343,0,0,0-1.48,2.96Z" transform="matrix(2.449070453643799, 0, 0, 2.449070453643799, 41.102943420410156, 168.88832092285156)" fill="#5bc03c" data-uid="o_ej82lcl05_14"></path><path id="_eg926bg6b_51" d="M47.274,13.312l1.038-1.038L46.2,11.217l-.029.029a4.3,4.3,0,0,1,.34.533Z" transform="matrix(2.449070453643799, 0, 0, 2.449070453643799, 41.102943420410156, 168.88832092285156)" fill="#eca62e" data-uid="o_ej82lcl05_15"></path><path id="_eg926bg6b_52" d="M18.414,52H60V10.414ZM28,49H26V47h2Zm8,1H34V48h2Zm3-10H37V38h2Zm8,7H45V45h2Zm2-15H47V30h2Zm3,3h2v2H52Zm4,15H54V48h2Zm1-23H55V25h2Z" transform="matrix(2.449070453643799, 0, 0, 2.449070453643799, 41.102943420410156, 168.88832092285156)" fill="#b4a596" data-uid="o_ej82lcl05_16"></path><path id="_eg926bg6b_53" d="M58.586,9H54.414L38.946,24.468a.987.987,0,0,1-.544.568c-.01,0-.02,0-.03.006L18.941,44.473l-.065.519-.4-.05L11.414,52h4.172Z" transform="matrix(2.449070453643799, 0, 0, 2.449070453643799, 41.102943420410156, 168.88832092285156)" fill="#695e50" data-uid="o_ej82lcl05_17"></path><path id="_eg926bg6b_54" d="M16,54h-.674l.229.8a4.12,4.12,0,0,0,5.095,2.83,6.183,6.183,0,0,1,4.72.571l2.038,1.165a4.138,4.138,0,0,0,4.684-.413l.231-.191a6.123,6.123,0,0,1,7.476-.278l1.112.794a4.135,4.135,0,0,0,4.442.225l2.97-1.7A6.123,6.123,0,0,1,51.36,57h.74a4.144,4.144,0,0,0,3.535-2l.6-1H16Z" transform="matrix(2.449070453643799, 0, 0, 2.449070453643799, 41.102943420410156, 168.88832092285156)" fill="#5bc03c" data-uid="o_ej82lcl05_18"></path><path text="Nom Nom" fill="#495158" transform="matrix(1.4808404445648193, 0, 0, 1.4808404445648193, 329.7783203125, 275.8864440917969)" space="preserve" text-anchor="middle" offset="0.5" font-scale="contain" font-size="48" font-family="Fjalla One" data-fl-textpath="" id="_eg926bg6b_116" font-weight="400" font-style="normal" data-uid="o_ej82lcl05_19" d="M-86.0175 0L-86.0175-40.03L-81.0975-40.03L-71.3875-13.24L-71.2475-13.24Q-71.3175-14.18 -71.4375-15.33Q-71.5575-16.48 -71.64750000000001-17.94Q-71.7375-19.41 -71.8075-21.26Q-71.8875-23.11 -71.8875-25.43L-71.8875-25.43L-71.8875-40.03L-66.4475-40.03L-66.4475 0L-71.4175 0L-81.0675-26.09L-81.2575-26.09Q-81.1875-25.03 -81.0675-23.8Q-80.9575-22.57 -80.8575-20.91Q-80.7675-19.24 -80.6975-17.03Q-80.6275-14.81 -80.6275-11.77L-80.6275-11.77L-80.6275 0L-86.0175 0ZM-51.8434375 0.35L-51.8434375 0.35Q-52.8734375 0.35 -53.9434375 0.19Q-55.003437500000004 0.02 -56.003437500000004-0.49Q-57.003437500000004-1.01 -57.8834375-1.97Q-58.753437500000004-2.93 -59.4134375-4.5Q-60.0734375-6.07 -60.4434375-8.37Q-60.8234375-10.66 -60.8234375-13.85L-60.8234375-13.85L-60.8234375-18.91Q-60.8234375-22.05 -60.4334375-24.29Q-60.0434375-26.53 -59.3834375-28.05Q-58.7134375-29.58 -57.8234375-30.48Q-56.9334375-31.38 -55.9334375-31.86Q-54.9334375-32.34 -53.8834375-32.5Q-52.8234375-32.65 -51.8234375-32.65L-51.8234375-32.65Q-50.8634375-32.65 -49.8234375-32.51Q-48.793437499999996-32.37 -47.8134375-31.91Q-46.8234375-31.45 -45.9534375-30.55Q-45.0734375-29.65 -44.403437499999995-28.13Q-43.7334375-26.6 -43.3434375-24.34Q-42.9634375-22.08 -42.9634375-18.91L-42.9634375-18.91L-42.9634375-13.85Q-42.9634375-10.71 -43.3634375-8.44Q-43.753437500000004-6.16 -44.4334375-4.59Q-45.1134375-3.02 -46.003437500000004-2.05Q-46.893437500000005-1.08 -47.8834375-0.54Q-48.8634375 0 -49.8834375 0.18Q-50.9034375 0.35 -51.8434375 0.35ZM-51.793437499999996-4.22L-51.793437499999996-4.22Q-51.003437500000004-4.22 -50.4534375-4.63Q-49.8934375-5.04 -49.5634375-5.98Q-49.2234375-6.91 -49.0634375-8.45Q-48.9134375-9.98 -48.9134375-12.26L-48.9134375-12.26L-48.9134375-20.2Q-48.9134375-22.48 -49.0634375-24.02Q-49.2234375-25.57 -49.5634375-26.52Q-49.8934375-27.47 -50.4534375-27.89Q-51.003437500000004-28.31 -51.793437499999996-28.31L-51.793437499999996-28.31Q-52.6434375-28.31 -53.2134375-27.89Q-53.793437499999996-27.47 -54.1634375-26.52Q-54.543437499999996-25.57 -54.7034375-24.02Q-54.8634375-22.48 -54.8634375-20.2L-54.8634375-20.2L-54.8634375-12.26Q-54.8634375-9.98 -54.7034375-8.45Q-54.543437499999996-6.91 -54.1634375-5.98Q-53.793437499999996-5.04 -53.2134375-4.63Q-52.6434375-4.22 -51.793437499999996-4.22ZM-37.7078125 0L-37.7078125-32.27L-33.1178125-32.27L-32.5978125-28.83L-32.5978125-28.8Q-31.8978125-29.91 -31.0978125-30.64Q-30.3078125-31.38 -29.447812499999998-31.83Q-28.5978125-32.27 -27.6878125-32.46Q-26.7878125-32.65 -25.8978125-32.65L-25.8978125-32.65Q-23.9978125-32.65 -22.6878125-31.73Q-21.3778125-30.82 -20.6978125-28.99L-20.6978125-28.99Q-19.9878125-30.05 -19.2078125-30.75Q-18.4178125-31.45 -17.5778125-31.88Q-16.7378125-32.3 -15.8678125-32.47Q-14.997812499999998-32.65 -14.107812500000001-32.65L-14.107812500000001-32.65Q-11.2978125-32.65 -9.7578125-30.67Q-8.227812499999999-28.69 -8.227812499999999-24.73L-8.227812499999999-24.73L-8.227812499999999 0L-14.157812499999999 0L-14.157812499999999-24.52Q-14.157812499999999-25.57 -14.317812499999999-26.3Q-14.4878125-27.02 -14.8078125-27.47Q-15.137812499999999-27.91 -15.657812499999999-28.11Q-16.1678125-28.31 -16.8978125-28.31L-16.8978125-28.31Q-17.7178125-28.31 -18.5378125-27.71Q-19.3578125-27.12 -20.0378125-26.06L-20.0378125-26.06Q-20.0178125-25.85 -20.0178125-25.64Q-20.0178125-25.43 -20.0178125-25.22L-20.0178125-25.22L-20.0178125 0L-25.947812499999998 0L-25.947812499999998-24.52Q-25.947812499999998-25.57 -26.1078125-26.3Q-26.2778125-27.02 -26.5978125-27.47Q-26.9278125-27.91 -27.447812499999998-28.11Q-27.9578125-28.31 -28.6878125-28.31L-28.6878125-28.31Q-29.4878125-28.31 -30.3078125-27.73Q-31.127812499999997-27.14 -31.7778125-26.11L-31.7778125-26.11L-31.7778125 0L-37.7078125 0ZM 8.5528125 0L 8.5528125-40.03L 13.4728125-40.03L 23.1828125-13.24L 23.3228125-13.24Q 23.2528125-14.18  23.1328125-15.33Q 23.0128125-16.48  22.9228125-17.94Q 22.8328125-19.41  22.7628125-21.26Q 22.6828125-23.11  22.6828125-25.43L 22.6828125-25.43L 22.6828125-40.03L 28.1228125-40.03L 28.1228125 0L 23.1528125 0L 13.5028125-26.09L 13.3128125-26.09Q 13.3828125-25.03  13.5028125-23.8Q 13.6128125-22.57  13.7128125-20.91Q 13.8028125-19.24  13.8728125-17.03Q 13.9428125-14.81  13.9428125-11.77L 13.9428125-11.77L 13.9428125 0L 8.5528125 0ZM 42.726875 0.35L 42.726875 0.35Q 41.696875 0.35  40.626875 0.19Q 39.566874999999996 0.02  38.566874999999996-0.49Q 37.566874999999996-1.01  36.686875-1.97Q 35.816874999999996-2.93  35.156875-4.5Q 34.496875-6.07  34.126875-8.37Q 33.746875-10.66  33.746875-13.85L 33.746875-13.85L 33.746875-18.91Q 33.746875-22.05  34.136875-24.29Q 34.526875-26.53  35.186875-28.05Q 35.856875-29.58  36.746875-30.48Q 37.636875-31.38  38.636875-31.86Q 39.636875-32.34  40.686875-32.5Q 41.746875-32.65  42.746875-32.65L 42.746875-32.65Q 43.706875-32.65  44.746875-32.51Q 45.776875000000004-32.37  46.756875-31.91Q 47.746875-31.45  48.616875-30.55Q 49.496875-29.65  50.166875000000005-28.13Q 50.836875-26.6  51.226875-24.34Q 51.606875-22.08  51.606875-18.91L 51.606875-18.91L 51.606875-13.85Q 51.606875-10.71  51.206875-8.44Q 50.816874999999996-6.16  50.136875-4.59Q 49.456875-3.02  48.566874999999996-2.05Q 47.676874999999995-1.08  46.686875-0.54Q 45.706875 0  44.686875 0.18Q 43.666875 0.35  42.726875 0.35ZM 42.776875000000004-4.22L 42.776875000000004-4.22Q 43.566874999999996-4.22  44.116875-4.63Q 44.676875-5.04  45.006875-5.98Q 45.346875-6.91  45.506875-8.45Q 45.656875-9.98  45.656875-12.26L 45.656875-12.26L 45.656875-20.2Q 45.656875-22.48  45.506875-24.02Q 45.346875-25.57  45.006875-26.52Q 44.676875-27.47  44.116875-27.89Q 43.566874999999996-28.31  42.776875000000004-28.31L 42.776875000000004-28.31Q 41.926875-28.31  41.356875-27.89Q 40.776875000000004-27.47  40.406875-26.52Q 40.026875000000004-25.57  39.866875-24.02Q 39.706875-22.48  39.706875-20.2L 39.706875-20.2L 39.706875-12.26Q 39.706875-9.98  39.866875-8.45Q 40.026875000000004-6.91  40.406875-5.98Q 40.776875000000004-5.04  41.356875-4.63Q 41.926875-4.22  42.776875000000004-4.22ZM 56.8625 0L 56.8625-32.27L 61.4525-32.27L 61.9725-28.83L 61.9725-28.8Q 62.6725-29.91  63.4725-30.64Q 64.2625-31.38  65.1225-31.83Q 65.9725-32.27  66.8825-32.46Q 67.7825-32.65  68.6725-32.65L 68.6725-32.65Q 70.5725-32.65  71.8825-31.73Q 73.1925-30.82  73.8725-28.99L 73.8725-28.99Q 74.5825-30.05  75.3625-30.75Q 76.1525-31.45  76.9925-31.88Q 77.8325-32.3  78.7025-32.47Q 79.5725-32.65  80.4625-32.65L 80.4625-32.65Q 83.27250000000001-32.65  84.8125-30.67Q 86.3425-28.69  86.3425-24.73L 86.3425-24.73L 86.3425 0L 80.4125 0L 80.4125-24.52Q 80.4125-25.57  80.2525-26.3Q 80.0825-27.02  79.7625-27.47Q 79.4325-27.91  78.9125-28.11Q 78.4025-28.31  77.6725-28.31L 77.6725-28.31Q 76.85249999999999-28.31  76.0325-27.71Q 75.2125-27.12  74.5325-26.06L 74.5325-26.06Q 74.5525-25.85  74.5525-25.64Q 74.5525-25.43  74.5525-25.22L 74.5525-25.22L 74.5525 0L 68.6225 0L 68.6225-24.52Q 68.6225-25.57  68.4625-26.3Q 68.2925-27.02  67.9725-27.47Q 67.6425-27.91  67.1225-28.11Q 66.6125-28.31  65.8825-28.31L 65.8825-28.31Q 65.0825-28.31  64.2625-27.73Q 63.4425-27.14  62.792500000000004-26.11L 62.792500000000004-26.11L 62.792500000000004 0L 56.8625 0Z"></path></svg>